<?xml version="1.0" encoding="us-ascii" standalone="no"?><svg xmlns="http://www.w3.org/2000/svg" xmlns:xlink="http://www.w3.org/1999/xlink" contentStyleType="text/css" height="121px" preserveAspectRatio="none" style="width:832px;height:121px;background:#FFFFFF;" version="1.1" viewBox="0 0 832 121" width="832px" zoomAndPan="magnify"><defs/><g><rect fill="#F1F1F1" height="20.2969" rx="5" ry="5" style="stroke:#F1F1F1;stroke-width:1.5;" width="197" x="10" y="49.3516"/><text fill="#000000" font-family="sans-serif" font-size="14" font-weight="bold" lengthAdjust="spacing" textLength="165" x="15" y="64.3467">ddsfmu_mapping.xml</text><text fill="#000000" font-family="sans-serif" font-size="14" lengthAdjust="spacing" textLength="12" x="190" y="64.3467">&#160;&#160;&#160;</text><line style="stroke:#000000;stroke-width:1.0;" x1="185" x2="185" y1="49.3516" y2="69.6484"/><rect fill="none" height="20.2969" rx="5" ry="5" style="stroke:#000000;stroke-width:1.5;" width="197" x="10" y="49.3516"/><rect fill="#F1F1F1" height="20.2969" rx="5" ry="5" style="stroke:#F1F1F1;stroke-width:1.5;" width="115" x="244" y="49.3516"/><text fill="#000000" font-family="sans-serif" font-size="14" font-weight="bold" lengthAdjust="spacing" textLength="83" x="249" y="64.3467">&lt;ddsfmu&gt;</text><text fill="#000000" font-family="sans-serif" font-size="14" lengthAdjust="spacing" textLength="12" x="342" y="64.3467">&#160;&#160;&#160;</text><line style="stroke:#000000;stroke-width:1.0;" x1="337" x2="337" y1="49.3516" y2="69.6484"/><rect fill="none" height="20.2969" rx="5" ry="5" style="stroke:#000000;stroke-width:1.5;" width="115" x="244" y="49.3516"/><rect fill="#F1F1F1" height="40.5938" rx="5" ry="5" style="stroke:#F1F1F1;stroke-width:1.5;" width="163" x="396" y="39"/><text fill="#000000" font-family="sans-serif" font-size="14" font-weight="bold" lengthAdjust="spacing" textLength="119" x="401" y="53.9951">&lt;fmu_in&gt; [0..*]</text><text fill="#000000" font-family="sans-serif" font-size="14" lengthAdjust="spacing" textLength="12" x="542" y="53.9951">&#160;&#160;&#160;</text><line style="stroke:#000000;stroke-width:1.0;" x1="537" x2="537" y1="39" y2="59.2969"/><line style="stroke:#000000;stroke-width:1.0;" x1="396" x2="559" y1="59.2969" y2="59.2969"/><text fill="#000000" font-family="sans-serif" font-size="14" font-weight="bold" lengthAdjust="spacing" textLength="131" x="401" y="74.292">&lt;fmu_out&gt; [0..*]</text><text fill="#000000" font-family="sans-serif" font-size="14" lengthAdjust="spacing" textLength="12" x="542" y="74.292">&#160;&#160;&#160;</text><line style="stroke:#000000;stroke-width:1.0;" x1="537" x2="537" y1="59.2969" y2="79.5938"/><rect fill="none" height="40.5938" rx="5" ry="5" style="stroke:#000000;stroke-width:1.5;" width="163" x="396" y="39"/><rect fill="#F1F1F1" height="40.5938" rx="5" ry="5" style="stroke:#F1F1F1;stroke-width:1.5;" width="224" x="596" y="10"/><text fill="#000000" font-family="sans-serif" font-size="14" font-weight="bold" lengthAdjust="spacing" textLength="39" x="601" y="24.9951">topic</text><text fill="#000000" font-family="sans-serif" font-size="14" lengthAdjust="spacing" textLength="165" x="650" y="24.9951">DDS topic name (string)</text><line style="stroke:#000000;stroke-width:1.0;" x1="645" x2="645" y1="10" y2="30.2969"/><line style="stroke:#000000;stroke-width:1.0;" x1="596" x2="820" y1="30.2969" y2="30.2969"/><text fill="#000000" font-family="sans-serif" font-size="14" font-weight="bold" lengthAdjust="spacing" textLength="35" x="601" y="45.292">type</text><text fill="#000000" font-family="sans-serif" font-size="14" lengthAdjust="spacing" textLength="161" x="650" y="45.292">DDS type name (string)</text><line style="stroke:#000000;stroke-width:1.0;" x1="645" x2="645" y1="30.2969" y2="50.5938"/><rect fill="none" height="40.5938" rx="5" ry="5" style="stroke:#000000;stroke-width:1.5;" width="224" x="596" y="10"/><rect fill="#F1F1F1" height="40.5938" rx="5" ry="5" style="stroke:#F1F1F1;stroke-width:1.5;" width="224" x="596" y="69"/><text fill="#000000" font-family="sans-serif" font-size="14" font-weight="bold" lengthAdjust="spacing" textLength="39" x="601" y="83.9951">topic</text><text fill="#000000" font-family="sans-serif" font-size="14" lengthAdjust="spacing" textLength="165" x="650" y="83.9951">DDS topic name (string)</text><line style="stroke:#000000;stroke-width:1.0;" x1="645" x2="645" y1="69" y2="89.2969"/><line style="stroke:#000000;stroke-width:1.0;" x1="596" x2="820" y1="89.2969" y2="89.2969"/><text fill="#000000" font-family="sans-serif" font-size="14" font-weight="bold" lengthAdjust="spacing" textLength="35" x="601" y="104.292">type</text><text fill="#000000" font-family="sans-serif" font-size="14" lengthAdjust="spacing" textLength="161" x="650" y="104.292">DDS type name (string)</text><line style="stroke:#000000;stroke-width:1.0;" x1="645" x2="645" y1="89.2969" y2="109.5938"/><rect fill="none" height="40.5938" rx="5" ry="5" style="stroke:#000000;stroke-width:1.5;" width="224" x="596" y="69"/><path d="M547,49.5 L560,49.5 C569.2697,49.5 578.8404,49.1263 588.4455,48.4837 " fill="none" style="stroke:#000000;stroke-width:1.0;stroke-dasharray:3.0,3.0;"/><path d="M588.6739,51.5658 L590.757,48.3124 L588.2171,45.4016 L596.1507,47.9128 L588.6739,51.5658 " fill="#000000" style="stroke:#000000;stroke-width:1.0;"/><ellipse cx="547" cy="49.5" fill="#000000" rx="3" ry="3" style="stroke:#000000;stroke-width:1.0;"/><path d="M547,69.5 L560,69.5 C569.2779,69.5 578.8545,69.8934 588.4636,70.5698 " fill="none" style="stroke:#000000;stroke-width:1.0;stroke-dasharray:3.0,3.0;"/><path d="M588.2232,73.653 L590.776,70.7501 L588.704,67.4865 L596.1717,71.1708 L588.2232,73.653 " fill="#000000" style="stroke:#000000;stroke-width:1.0;"/><ellipse cx="547" cy="69.5" fill="#000000" rx="3" ry="3" style="stroke:#000000;stroke-width:1.0;"/><path d="M347,59.5 L360,59.5 C369.2961,59.5 379.0078,59.5 388.6892,59.5 " fill="none" style="stroke:#000000;stroke-width:1.0;stroke-dasharray:3.0,3.0;"/><path d="M388.6892,62.5997 L391.014,59.5 L388.6892,56.4003 L396.4385,59.5 L388.6892,62.5997 " fill="#000000" style="stroke:#000000;stroke-width:1.0;"/><ellipse cx="347" cy="59.5" fill="#000000" rx="3" ry="3" style="stroke:#000000;stroke-width:1.0;"/><path d="M195,59.5 L208,59.5 C217.3003,59.5 227.1237,59.5 236.7639,59.5 " fill="none" style="stroke:#000000;stroke-width:1.0;stroke-dasharray:3.0,3.0;"/><path d="M236.7639,62.5714 L239.0675,59.5 L236.7639,56.4286 L244.4425,59.5 L236.7639,62.5714 " fill="#000000" style="stroke:#000000;stroke-width:1.0;"/><ellipse cx="195" cy="59.5" fill="#000000" rx="3" ry="3" style="stroke:#000000;stroke-width:1.0;"/><!--SRC=[jP11Jy9048Nl-oicdAW9JOiefZ64ID6aGY0My62CMRjBiqbtjjdkDlBldOAe5u_EQURDjszUTjeuRjs1wue12D7ijN_JlAuLbk67hX9IgMvFcydNI4B7APp0InI65w_VEe0pjIeIwALfVke1kPRGRvmbpw3tYppKyWnI-mTtl6Iy-yzJKudY-0LiNN5qs-K2McaRPH3YS1WDByCuwZzB0Pcl81v2F4wkHaaqXjaytq071Ap_i5v0Oxmj90ZLMRzxHmu1otZBuScZKvf2h6g9MVfu5c2EhR86jKJ7ijto1xWU3UwKWrnQoWAx9KlbdllAqOl220gUm7PpFxXX2uwbvoLvIsGpGxxsGBly4m00]--></g></svg>