<?xml version="1.0" encoding="us-ascii" standalone="no"?><svg xmlns="http://www.w3.org/2000/svg" xmlns:xlink="http://www.w3.org/1999/xlink" contentStyleType="text/css" height="232px" preserveAspectRatio="none" style="width:815px;height:232px;background:#FFFFFF;" version="1.1" viewBox="0 0 815 232" width="815px" zoomAndPan="magnify"><defs/><g><rect fill="#F1F1F1" height="20.2969" rx="5" ry="5" style="stroke:#F1F1F1;stroke-width:1.5;" width="151" x="10" y="105"/><text fill="#000000" font-family="sans-serif" font-size="14" font-weight="bold" lengthAdjust="spacing" textLength="119" x="15" y="119.9951">dds_profile.xml</text><text fill="#000000" font-family="sans-serif" font-size="14" lengthAdjust="spacing" textLength="12" x="144" y="119.9951">&#160;&#160;&#160;</text><line style="stroke:#000000;stroke-width:1.0;" x1="139" x2="139" y1="105" y2="125.2969"/><rect fill="none" height="20.2969" rx="5" ry="5" style="stroke:#000000;stroke-width:1.5;" width="151" x="10" y="105"/><rect fill="#F1F1F1" height="20.2969" rx="5" ry="5" style="stroke:#F1F1F1;stroke-width:1.5;" width="85" x="198" y="105"/><text fill="#000000" font-family="sans-serif" font-size="14" font-weight="bold" lengthAdjust="spacing" textLength="53" x="203" y="119.9951">&lt;dds&gt;</text><text fill="#000000" font-family="sans-serif" font-size="14" lengthAdjust="spacing" textLength="12" x="266" y="119.9951">&#160;&#160;&#160;</text><line style="stroke:#000000;stroke-width:1.0;" x1="261" x2="261" y1="105" y2="125.2969"/><rect fill="none" height="20.2969" rx="5" ry="5" style="stroke:#000000;stroke-width:1.5;" width="85" x="198" y="105"/><rect fill="#F1F1F1" height="121.7813" rx="5" ry="5" style="stroke:#F1F1F1;stroke-width:1.5;" width="213" x="320" y="54.1484"/><text fill="#000000" font-family="sans-serif" font-size="14" font-weight="bold" lengthAdjust="spacing" textLength="155" x="325" y="69.1436">&lt;participant&gt; [0..1]</text><text fill="#000000" font-family="sans-serif" font-size="14" lengthAdjust="spacing" textLength="12" x="516" y="69.1436">&#160;&#160;&#160;</text><line style="stroke:#000000;stroke-width:1.0;" x1="511" x2="511" y1="54.1484" y2="74.4453"/><line style="stroke:#000000;stroke-width:1.0;" x1="320" x2="533" y1="74.4453" y2="74.4453"/><text fill="#000000" font-family="sans-serif" font-size="14" font-weight="bold" lengthAdjust="spacing" textLength="145" x="325" y="89.4404">&lt;publisher&gt; [0..1]</text><text fill="#000000" font-family="sans-serif" font-size="14" lengthAdjust="spacing" textLength="12" x="516" y="89.4404">&#160;&#160;&#160;</text><line style="stroke:#000000;stroke-width:1.0;" x1="511" x2="511" y1="74.4453" y2="94.7422"/><line style="stroke:#000000;stroke-width:1.0;" x1="320" x2="533" y1="94.7422" y2="94.7422"/><text fill="#000000" font-family="sans-serif" font-size="14" font-weight="bold" lengthAdjust="spacing" textLength="156" x="325" y="109.7373">&lt;subscriber&gt; [0..1]</text><text fill="#000000" font-family="sans-serif" font-size="14" lengthAdjust="spacing" textLength="12" x="516" y="109.7373">&#160;&#160;&#160;</text><line style="stroke:#000000;stroke-width:1.0;" x1="511" x2="511" y1="94.7422" y2="115.0391"/><line style="stroke:#000000;stroke-width:1.0;" x1="320" x2="533" y1="115.0391" y2="115.0391"/><text fill="#000000" font-family="sans-serif" font-size="14" font-weight="bold" lengthAdjust="spacing" textLength="167" x="325" y="130.0342">&lt;topic&gt; [0..n_w+n_r]</text><text fill="#000000" font-family="sans-serif" font-size="14" lengthAdjust="spacing" textLength="12" x="516" y="130.0342">&#160;&#160;&#160;</text><line style="stroke:#000000;stroke-width:1.0;" x1="511" x2="511" y1="115.0391" y2="135.3359"/><line style="stroke:#000000;stroke-width:1.0;" x1="320" x2="533" y1="135.3359" y2="135.3359"/><text fill="#000000" font-family="sans-serif" font-size="14" font-weight="bold" lengthAdjust="spacing" textLength="181" x="325" y="150.3311">&lt;data_writer&gt; [0..n_w]</text><text fill="#000000" font-family="sans-serif" font-size="14" lengthAdjust="spacing" textLength="12" x="516" y="150.3311">&#160;&#160;&#160;</text><line style="stroke:#000000;stroke-width:1.0;" x1="511" x2="511" y1="135.3359" y2="155.6328"/><line style="stroke:#000000;stroke-width:1.0;" x1="320" x2="533" y1="155.6328" y2="155.6328"/><text fill="#000000" font-family="sans-serif" font-size="14" font-weight="bold" lengthAdjust="spacing" textLength="179" x="325" y="170.6279">&lt;data_reader&gt; [0..n_r]</text><text fill="#000000" font-family="sans-serif" font-size="14" lengthAdjust="spacing" textLength="12" x="516" y="170.6279">&#160;&#160;&#160;</text><line style="stroke:#000000;stroke-width:1.0;" x1="511" x2="511" y1="155.6328" y2="175.9297"/><rect fill="none" height="121.7813" rx="5" ry="5" style="stroke:#000000;stroke-width:1.5;" width="213" x="320" y="54.1484"/><rect fill="#F1F1F1" height="20.2969" rx="5" ry="5" style="stroke:#F1F1F1;stroke-width:1.5;" width="230" x="571.5" y="10"/><text fill="#000000" font-family="sans-serif" font-size="14" font-weight="bold" lengthAdjust="spacing" textLength="101" x="576.5" y="24.9951">profile_name</text><text fill="#000000" font-family="sans-serif" font-size="14" lengthAdjust="spacing" textLength="109" x="687.5" y="24.9951">dds-fmu-default</text><line style="stroke:#000000;stroke-width:1.0;" x1="682.5" x2="682.5" y1="10" y2="30.2969"/><rect fill="none" height="20.2969" rx="5" ry="5" style="stroke:#000000;stroke-width:1.5;" width="230" x="571.5" y="10"/><rect fill="#F1F1F1" height="20.2969" rx="5" ry="5" style="stroke:#F1F1F1;stroke-width:1.5;" width="230" x="571.5" y="48"/><text fill="#000000" font-family="sans-serif" font-size="14" font-weight="bold" lengthAdjust="spacing" textLength="101" x="576.5" y="62.9951">profile_name</text><text fill="#000000" font-family="sans-serif" font-size="14" lengthAdjust="spacing" textLength="109" x="687.5" y="62.9951">dds-fmu-default</text><line style="stroke:#000000;stroke-width:1.0;" x1="682.5" x2="682.5" y1="48" y2="68.2969"/><rect fill="none" height="20.2969" rx="5" ry="5" style="stroke:#000000;stroke-width:1.5;" width="230" x="571.5" y="48"/><rect fill="#F1F1F1" height="20.2969" rx="5" ry="5" style="stroke:#F1F1F1;stroke-width:1.5;" width="230" x="571.5" y="86"/><text fill="#000000" font-family="sans-serif" font-size="14" font-weight="bold" lengthAdjust="spacing" textLength="101" x="576.5" y="100.9951">profile_name</text><text fill="#000000" font-family="sans-serif" font-size="14" lengthAdjust="spacing" textLength="109" x="687.5" y="100.9951">dds-fmu-default</text><line style="stroke:#000000;stroke-width:1.0;" x1="682.5" x2="682.5" y1="86" y2="106.2969"/><rect fill="none" height="20.2969" rx="5" ry="5" style="stroke:#000000;stroke-width:1.5;" width="230" x="571.5" y="86"/><rect fill="#F1F1F1" height="20.2969" rx="5" ry="5" style="stroke:#F1F1F1;stroke-width:1.5;" width="233" x="570" y="124"/><text fill="#000000" font-family="sans-serif" font-size="14" font-weight="bold" lengthAdjust="spacing" textLength="101" x="575" y="138.9951">profile_name</text><text fill="#000000" font-family="sans-serif" font-size="14" lengthAdjust="spacing" textLength="112" x="686" y="138.9951">DDS topic name</text><line style="stroke:#000000;stroke-width:1.0;" x1="681" x2="681" y1="124" y2="144.2969"/><rect fill="none" height="20.2969" rx="5" ry="5" style="stroke:#000000;stroke-width:1.5;" width="233" x="570" y="124"/><rect fill="#F1F1F1" height="20.2969" rx="5" ry="5" style="stroke:#F1F1F1;stroke-width:1.5;" width="233" x="570" y="162"/><text fill="#000000" font-family="sans-serif" font-size="14" font-weight="bold" lengthAdjust="spacing" textLength="101" x="575" y="176.9951">profile_name</text><text fill="#000000" font-family="sans-serif" font-size="14" lengthAdjust="spacing" textLength="112" x="686" y="176.9951">DDS topic name</text><line style="stroke:#000000;stroke-width:1.0;" x1="681" x2="681" y1="162" y2="182.2969"/><rect fill="none" height="20.2969" rx="5" ry="5" style="stroke:#000000;stroke-width:1.5;" width="233" x="570" y="162"/><rect fill="#F1F1F1" height="20.2969" rx="5" ry="5" style="stroke:#F1F1F1;stroke-width:1.5;" width="233" x="570" y="200"/><text fill="#000000" font-family="sans-serif" font-size="14" font-weight="bold" lengthAdjust="spacing" textLength="101" x="575" y="214.9951">profile_name</text><text fill="#000000" font-family="sans-serif" font-size="14" lengthAdjust="spacing" textLength="112" x="686" y="214.9951">DDS topic name</text><line style="stroke:#000000;stroke-width:1.0;" x1="681" x2="681" y1="200" y2="220.2969"/><rect fill="none" height="20.2969" rx="5" ry="5" style="stroke:#000000;stroke-width:1.5;" width="233" x="570" y="200"/><path d="M521,64.1484 L534,64.1484 C553.4797,64.1484 551.9439,46.4582 570,39.1484 C576.4595,36.5334 583.2597,34.2779 590.1949,32.3326 " fill="none" style="stroke:#000000;stroke-width:1.0;stroke-dasharray:3.0,3.0;"/><path d="M590.9915,35.3601 L592.4655,31.7352 L589.3983,29.3052 L597.7635,30.3412 L590.9915,35.3601 " fill="#000000" style="stroke:#000000;stroke-width:1.0;"/><ellipse cx="521" cy="64.1484" fill="#000000" rx="3" ry="3" style="stroke:#000000;stroke-width:1.0;"/><path d="M521,84.1484 L534,84.1484 C550.2997,84.1484 553.9556,80.0216 570,77.1484 C584.2834,74.5906 599.5815,71.9878 614.2285,69.5625 " fill="none" style="stroke:#000000;stroke-width:1.0;stroke-dasharray:3.0,3.0;"/><path d="M614.7289,72.599 L616.5059,69.1872 L613.7281,66.5259 L621.8198,68.3115 L614.7289,72.599 " fill="#000000" style="stroke:#000000;stroke-width:1.0;"/><ellipse cx="521" cy="84.1484" fill="#000000" rx="3" ry="3" style="stroke:#000000;stroke-width:1.0;"/><path d="M521,105.1484 L534,105.1484 C543.7954,105.1484 553.9398,104.9599 564.1268,104.6373 " fill="none" style="stroke:#000000;stroke-width:1.0;stroke-dasharray:3.0,3.0;"/><path d="M564.2355,107.7547 L566.4648,104.5558 L564.018,101.52 L571.9201,104.3655 L564.2355,107.7547 " fill="#000000" style="stroke:#000000;stroke-width:1.0;"/><ellipse cx="521" cy="105.1484" fill="#000000" rx="3" ry="3" style="stroke:#000000;stroke-width:1.0;"/><path d="M521,125.1484 L534,125.1484 C543.2822,125.1484 552.8777,125.3178 562.526,125.6099 " fill="none" style="stroke:#000000;stroke-width:1.0;stroke-dasharray:3.0,3.0;"/><path d="M562.4221,128.7076 L564.8492,125.6879 L562.6299,122.5123 L570.27,125.8697 L562.4221,128.7076 " fill="#000000" style="stroke:#000000;stroke-width:1.0;"/><ellipse cx="521" cy="125.1484" fill="#000000" rx="3" ry="3" style="stroke:#000000;stroke-width:1.0;"/><path d="M521,145.1484 L534,145.1484 C550.3903,145.1484 553.9062,150.0448 570,153.1484 C583.6102,155.7732 598.1641,158.3426 612.2028,160.7013 " fill="none" style="stroke:#000000;stroke-width:1.0;stroke-dasharray:3.0,3.0;"/><path d="M611.6877,163.7961 L614.5239,161.0876 L612.7179,157.6065 L619.9398,161.989 L611.6877,163.7961 " fill="#000000" style="stroke:#000000;stroke-width:1.0;"/><ellipse cx="521" cy="145.1484" fill="#000000" rx="3" ry="3" style="stroke:#000000;stroke-width:1.0;"/><path d="M521,166.1484 L534,166.1484 C553.4797,166.1484 551.9439,183.8386 570,191.1484 C576.4595,193.7635 583.2597,196.019 590.1949,197.9642 " fill="none" style="stroke:#000000;stroke-width:1.0;stroke-dasharray:3.0,3.0;"/><path d="M589.3983,200.9917 L592.4655,198.5617 L590.9915,194.9368 L597.7635,199.9557 L589.3983,200.9917 " fill="#000000" style="stroke:#000000;stroke-width:1.0;"/><ellipse cx="521" cy="166.1484" fill="#000000" rx="3" ry="3" style="stroke:#000000;stroke-width:1.0;"/><path d="M271,115.1484 L284,115.1484 C293.24,115.1484 302.8182,115.1484 312.4374,115.1484 " fill="none" style="stroke:#000000;stroke-width:1.0;stroke-dasharray:3.0,3.0;"/><path d="M312.4374,118.2355 L314.7527,115.1484 L312.4374,112.0614 L320.1551,115.1484 L312.4374,118.2355 " fill="#000000" style="stroke:#000000;stroke-width:1.0;"/><ellipse cx="271" cy="115.1484" fill="#000000" rx="3" ry="3" style="stroke:#000000;stroke-width:1.0;"/><path d="M149,115.1484 L162,115.1484 C171.2961,115.1484 181.2155,115.1484 190.7553,115.1484 " fill="none" style="stroke:#000000;stroke-width:1.0;stroke-dasharray:3.0,3.0;"/><path d="M190.7553,118.1685 L193.0204,115.1484 L190.7553,112.1283 L198.3056,115.1484 L190.7553,118.1685 " fill="#000000" style="stroke:#000000;stroke-width:1.0;"/><ellipse cx="149" cy="115.1484" fill="#000000" rx="3" ry="3" style="stroke:#000000;stroke-width:1.0;"/><!--SRC=[fP7BRi8m44Nt_eeHAr2LAA6qL565K0cjb8AA6g2BgefCRAWbnudyWFBtJ7YkkYZrohupzyoLfsyirNPB2qa063DPfSkbaDp_AMI44fv7b7l7Exugx1UvgAYoFVWCV3_yEXS1ZlPCqO97DT1R5ivZV4cTj1U6MqXXlhc-cc3SmkHQBFw1i6KbyeDRPPiRbUdV6OquJc5lW5fed26CMffjjB2d88Yw5gCvPHVCNzBqkMBx7PA9nBtCnYDOSsr4gI3qsq7xrW-3vWTda3W9OHl2RdJNYO8k38Rf5Eg65cc-J4PWIgTp3amOYv_hB19Q9A5h2kzEML4FVwkuIkBNam13jHQwL0LNbYJpyQNXlkCz2GifrvW5vcCI7nQ0ZhnaGgqYc4sVlGSoechbw0hPN951YLoznLgw0m00]--></g></svg>