<?xml version="1.0" encoding="us-ascii" standalone="no"?><svg xmlns="http://www.w3.org/2000/svg" xmlns:xlink="http://www.w3.org/1999/xlink" contentStyleType="text/css" height="194px" preserveAspectRatio="none" style="width:815px;height:194px;background:#FFFFFF;" version="1.1" viewBox="0 0 815 194" width="815px" zoomAndPan="magnify"><defs/><g><rect fill="#F1F1F1" height="20.2969" rx="5" ry="5" style="stroke:#F1F1F1;stroke-width:1.5;" width="151" x="10" y="86"/><text fill="#000000" font-family="sans-serif" font-size="14" font-weight="bold" lengthAdjust="spacing" textLength="119" x="15" y="100.9951">dds_profile.xml</text><text fill="#000000" font-family="sans-serif" font-size="14" lengthAdjust="spacing" textLength="12" x="144" y="100.9951">&#160;&#160;&#160;</text><line style="stroke:#000000;stroke-width:1.0;" x1="139" x2="139" y1="86" y2="106.2969"/><rect fill="none" height="20.2969" rx="5" ry="5" style="stroke:#000000;stroke-width:1.5;" width="151" x="10" y="86"/><rect fill="#F1F1F1" height="20.2969" rx="5" ry="5" style="stroke:#F1F1F1;stroke-width:1.5;" width="85" x="198" y="86"/><text fill="#000000" font-family="sans-serif" font-size="14" font-weight="bold" lengthAdjust="spacing" textLength="53" x="203" y="100.9951">&lt;dds&gt;</text><text fill="#000000" font-family="sans-serif" font-size="14" lengthAdjust="spacing" textLength="12" x="266" y="100.9951">&#160;&#160;&#160;</text><line style="stroke:#000000;stroke-width:1.0;" x1="261" x2="261" y1="86" y2="106.2969"/><rect fill="none" height="20.2969" rx="5" ry="5" style="stroke:#000000;stroke-width:1.5;" width="85" x="198" y="86"/><rect fill="#F1F1F1" height="101.4844" rx="5" ry="5" style="stroke:#F1F1F1;stroke-width:1.5;" width="213" x="320" y="45.4063"/><text fill="#000000" font-family="sans-serif" font-size="14" font-weight="bold" lengthAdjust="spacing" textLength="155" x="325" y="60.4014">&lt;participant&gt; [0..1]</text><text fill="#000000" font-family="sans-serif" font-size="14" lengthAdjust="spacing" textLength="12" x="516" y="60.4014">&#160;&#160;&#160;</text><line style="stroke:#000000;stroke-width:1.0;" x1="511" x2="511" y1="45.4063" y2="65.7031"/><line style="stroke:#000000;stroke-width:1.0;" x1="320" x2="533" y1="65.7031" y2="65.7031"/><text fill="#000000" font-family="sans-serif" font-size="14" font-weight="bold" lengthAdjust="spacing" textLength="145" x="325" y="80.6982">&lt;publisher&gt; [0..1]</text><text fill="#000000" font-family="sans-serif" font-size="14" lengthAdjust="spacing" textLength="12" x="516" y="80.6982">&#160;&#160;&#160;</text><line style="stroke:#000000;stroke-width:1.0;" x1="511" x2="511" y1="65.7031" y2="86"/><line style="stroke:#000000;stroke-width:1.0;" x1="320" x2="533" y1="86" y2="86"/><text fill="#000000" font-family="sans-serif" font-size="14" font-weight="bold" lengthAdjust="spacing" textLength="156" x="325" y="100.9951">&lt;subscriber&gt; [0..1]</text><text fill="#000000" font-family="sans-serif" font-size="14" lengthAdjust="spacing" textLength="12" x="516" y="100.9951">&#160;&#160;&#160;</text><line style="stroke:#000000;stroke-width:1.0;" x1="511" x2="511" y1="86" y2="106.2969"/><line style="stroke:#000000;stroke-width:1.0;" x1="320" x2="533" y1="106.2969" y2="106.2969"/><text fill="#000000" font-family="sans-serif" font-size="14" font-weight="bold" lengthAdjust="spacing" textLength="181" x="325" y="121.292">&lt;data_writer&gt; [0..n_w]</text><text fill="#000000" font-family="sans-serif" font-size="14" lengthAdjust="spacing" textLength="12" x="516" y="121.292">&#160;&#160;&#160;</text><line style="stroke:#000000;stroke-width:1.0;" x1="511" x2="511" y1="106.2969" y2="126.5938"/><line style="stroke:#000000;stroke-width:1.0;" x1="320" x2="533" y1="126.5938" y2="126.5938"/><text fill="#000000" font-family="sans-serif" font-size="14" font-weight="bold" lengthAdjust="spacing" textLength="179" x="325" y="141.5889">&lt;data_reader&gt; [0..n_r]</text><text fill="#000000" font-family="sans-serif" font-size="14" lengthAdjust="spacing" textLength="12" x="516" y="141.5889">&#160;&#160;&#160;</text><line style="stroke:#000000;stroke-width:1.0;" x1="511" x2="511" y1="126.5938" y2="146.8906"/><rect fill="none" height="101.4844" rx="5" ry="5" style="stroke:#000000;stroke-width:1.5;" width="213" x="320" y="45.4063"/><rect fill="#F1F1F1" height="20.2969" rx="5" ry="5" style="stroke:#F1F1F1;stroke-width:1.5;" width="230" x="571.5" y="10"/><text fill="#000000" font-family="sans-serif" font-size="14" font-weight="bold" lengthAdjust="spacing" textLength="101" x="576.5" y="24.9951">profile_name</text><text fill="#000000" font-family="sans-serif" font-size="14" lengthAdjust="spacing" textLength="109" x="687.5" y="24.9951">dds-fmu-default</text><line style="stroke:#000000;stroke-width:1.0;" x1="682.5" x2="682.5" y1="10" y2="30.2969"/><rect fill="none" height="20.2969" rx="5" ry="5" style="stroke:#000000;stroke-width:1.5;" width="230" x="571.5" y="10"/><rect fill="#F1F1F1" height="20.2969" rx="5" ry="5" style="stroke:#F1F1F1;stroke-width:1.5;" width="230" x="571.5" y="48"/><text fill="#000000" font-family="sans-serif" font-size="14" font-weight="bold" lengthAdjust="spacing" textLength="101" x="576.5" y="62.9951">profile_name</text><text fill="#000000" font-family="sans-serif" font-size="14" lengthAdjust="spacing" textLength="109" x="687.5" y="62.9951">dds-fmu-default</text><line style="stroke:#000000;stroke-width:1.0;" x1="682.5" x2="682.5" y1="48" y2="68.2969"/><rect fill="none" height="20.2969" rx="5" ry="5" style="stroke:#000000;stroke-width:1.5;" width="230" x="571.5" y="48"/><rect fill="#F1F1F1" height="20.2969" rx="5" ry="5" style="stroke:#F1F1F1;stroke-width:1.5;" width="230" x="571.5" y="86"/><text fill="#000000" font-family="sans-serif" font-size="14" font-weight="bold" lengthAdjust="spacing" textLength="101" x="576.5" y="100.9951">profile_name</text><text fill="#000000" font-family="sans-serif" font-size="14" lengthAdjust="spacing" textLength="109" x="687.5" y="100.9951">dds-fmu-default</text><line style="stroke:#000000;stroke-width:1.0;" x1="682.5" x2="682.5" y1="86" y2="106.2969"/><rect fill="none" height="20.2969" rx="5" ry="5" style="stroke:#000000;stroke-width:1.5;" width="230" x="571.5" y="86"/><rect fill="#F1F1F1" height="20.2969" rx="5" ry="5" style="stroke:#F1F1F1;stroke-width:1.5;" width="233" x="570" y="124"/><text fill="#000000" font-family="sans-serif" font-size="14" font-weight="bold" lengthAdjust="spacing" textLength="101" x="575" y="138.9951">profile_name</text><text fill="#000000" font-family="sans-serif" font-size="14" lengthAdjust="spacing" textLength="112" x="686" y="138.9951">DDS topic name</text><line style="stroke:#000000;stroke-width:1.0;" x1="681" x2="681" y1="124" y2="144.2969"/><rect fill="none" height="20.2969" rx="5" ry="5" style="stroke:#000000;stroke-width:1.5;" width="233" x="570" y="124"/><rect fill="#F1F1F1" height="20.2969" rx="5" ry="5" style="stroke:#F1F1F1;stroke-width:1.5;" width="233" x="570" y="162"/><text fill="#000000" font-family="sans-serif" font-size="14" font-weight="bold" lengthAdjust="spacing" textLength="101" x="575" y="176.9951">profile_name</text><text fill="#000000" font-family="sans-serif" font-size="14" lengthAdjust="spacing" textLength="112" x="686" y="176.9951">DDS topic name</text><line style="stroke:#000000;stroke-width:1.0;" x1="681" x2="681" y1="162" y2="182.2969"/><rect fill="none" height="20.2969" rx="5" ry="5" style="stroke:#000000;stroke-width:1.5;" width="233" x="570" y="162"/><path d="M521,55.1484 L534,55.1484 C551.5091,55.1484 553.2235,44.16 570,39.1484 C579.349,36.3556 589.2521,33.9433 599.1763,31.8667 " fill="none" style="stroke:#000000;stroke-width:1.0;stroke-dasharray:3.0,3.0;"/><path d="M599.7856,34.9005 L601.4516,31.4097 L598.567,28.833 L606.7607,30.3434 L599.7856,34.9005 " fill="#000000" style="stroke:#000000;stroke-width:1.0;"/><ellipse cx="521" cy="55.1484" fill="#000000" rx="3" ry="3" style="stroke:#000000;stroke-width:1.0;"/><path d="M521,76.1484 L534,76.1484 C562.2974,76.1484 593.3538,73.0339 619.9775,69.3959 " fill="none" style="stroke:#000000;stroke-width:1.0;stroke-dasharray:3.0,3.0;"/><path d="M620.4136,72.495 L622.3018,69.0688 L619.5415,66.2968 L627.7253,68.3057 L620.4136,72.495 " fill="#000000" style="stroke:#000000;stroke-width:1.0;"/><ellipse cx="521" cy="76.1484" fill="#000000" rx="3" ry="3" style="stroke:#000000;stroke-width:1.0;"/><path d="M521,96.1484 L534,96.1484 C543.7783,96.1484 553.9105,96.1484 564.0892,96.1484 " fill="none" style="stroke:#000000;stroke-width:1.0;stroke-dasharray:3.0,3.0;"/><path d="M564.0892,99.2635 L566.4255,96.1484 L564.0892,93.0334 L571.8769,96.1484 L564.0892,99.2635 " fill="#000000" style="stroke:#000000;stroke-width:1.0;"/><ellipse cx="521" cy="96.1484" fill="#000000" rx="3" ry="3" style="stroke:#000000;stroke-width:1.0;"/><path d="M521,116.1484 L534,116.1484 C562.2974,116.1484 593.3538,119.263 619.9775,122.901 " fill="none" style="stroke:#000000;stroke-width:1.0;stroke-dasharray:3.0,3.0;"/><path d="M619.5415,126.0001 L622.3018,123.228 L620.4136,119.8019 L627.7253,123.9911 L619.5415,126.0001 " fill="#000000" style="stroke:#000000;stroke-width:1.0;"/><ellipse cx="521" cy="116.1484" fill="#000000" rx="3" ry="3" style="stroke:#000000;stroke-width:1.0;"/><path d="M521,137.1484 L534,137.1484 C551.5091,137.1484 553.2235,148.1368 570,153.1484 C579.349,155.9412 589.2521,158.3536 599.1763,160.4302 " fill="none" style="stroke:#000000;stroke-width:1.0;stroke-dasharray:3.0,3.0;"/><path d="M598.567,163.4639 L601.4516,160.8871 L599.7856,157.3964 L606.7607,161.9534 L598.567,163.4639 " fill="#000000" style="stroke:#000000;stroke-width:1.0;"/><ellipse cx="521" cy="137.1484" fill="#000000" rx="3" ry="3" style="stroke:#000000;stroke-width:1.0;"/><path d="M271,96.1484 L284,96.1484 C293.24,96.1484 302.8182,96.1484 312.4374,96.1484 " fill="none" style="stroke:#000000;stroke-width:1.0;stroke-dasharray:3.0,3.0;"/><path d="M312.4374,99.2355 L314.7527,96.1484 L312.4374,93.0614 L320.1551,96.1484 L312.4374,99.2355 " fill="#000000" style="stroke:#000000;stroke-width:1.0;"/><ellipse cx="271" cy="96.1484" fill="#000000" rx="3" ry="3" style="stroke:#000000;stroke-width:1.0;"/><path d="M149,96.1484 L162,96.1484 C171.2961,96.1484 181.2155,96.1484 190.7553,96.1484 " fill="none" style="stroke:#000000;stroke-width:1.0;stroke-dasharray:3.0,3.0;"/><path d="M190.7553,99.1685 L193.0204,96.1484 L190.7553,93.1283 L198.3056,96.1484 L190.7553,99.1685 " fill="#000000" style="stroke:#000000;stroke-width:1.0;"/><ellipse cx="149" cy="96.1484" fill="#000000" rx="3" ry="3" style="stroke:#000000;stroke-width:1.0;"/><!--SRC=[fP1FJy904CNl-oacdE3GfaKKqnX2f6XI8H8BU32cMRe3RhBTRVOFoBTdgo3nu46TqywRDx_PlA6nLDizhGG1OCmKjLPhBZ1yhqJY9LytNXuStxwhlP-NlARI3k0b2iFuzMi8S5ml9AqmQO31kd81mpLrmfuPRYMuUKFzPu9nArDglle7Wb5BYvtcziIGnUvdIYjDSx2gvYKqGkixHYDbPup-1MQ8adt4JsR2HxgOJc2Bsd0b8GwxKVSYZAFsCpB8d82u2t4_kUmbKHz6utmEZQ53slUp2HZbT8d0kB4-5sSzeKCokgNmvAJbpV776cMMFfm46CijrqfMA2t9bjEpuQeNt78BEMh_5rXEIVgPdTye5UDoay1YVXTSamcL6qStdesIZ9JdwhsVvGS0]--></g></svg>